HIERARCHY
ROOT Hips
{
 OFFSET 0.000000 0.000000 0.000000
 CHANNELS 6 Xposition Yposition Zposition Yrotation Xrotation Zrotation
 JOINT Chest
 {
  OFFSET 0.000000 10.354800 0.006500
  CHANNELS 3 Yrotation Xrotation Zrotation
  JOINT Chest2
  {
   OFFSET 0.000000 10.435800 -0.013200
   CHANNELS 3 Yrotation Xrotation Zrotation
   JOINT Chest3
   {
    OFFSET 0.000000 10.393700 0.000000
    CHANNELS 3 Yrotation Xrotation Zrotation
    JOINT Chest4
    {
     OFFSET 0.000000 10.383100 0.000000
     CHANNELS 3 Yrotation Xrotation Zrotation
     JOINT Neck
     {
      OFFSET 0.000000 15.694000 0.000000
      CHANNELS 3 Yrotation Xrotation Zrotation
      JOINT Head
      {
       OFFSET 0.000000 9.711000 -0.028000
       CHANNELS 3 Yrotation Xrotation Zrotation
       End Site
       {
        OFFSET 0.000000 18.578700 -0.014800
       }
      }
     }
     JOINT RightCollar
     {
      OFFSET -3.157200 10.367500 0.000000
      CHANNELS 3 Yrotation Xrotation Zrotation
      JOINT RightShoulder
      {
       OFFSET -14.482500 0.000000 0.000000
       CHANNELS 3 Yrotation Xrotation Zrotation
       JOINT RightElbow
       {
        OFFSET 0.000000 -31.707800 0.000000
        CHANNELS 3 Yrotation Xrotation Zrotation
        JOINT RightWrist
        {
         OFFSET 0.000000 -25.659300 0.000000
         CHANNELS 3 Yrotation Xrotation Zrotation
         End Site
         {
          OFFSET 0.000000 -18.994300 0.000000
         }
        }
       }
      }
     }
     JOINT LeftCollar
     {
      OFFSET 3.157200 10.367500 0.000000
      CHANNELS 3 Yrotation Xrotation Zrotation
      JOINT LeftShoulder
      {
       OFFSET 14.482500 0.000000 0.000000
       CHANNELS 3 Yrotation Xrotation Zrotation
       JOINT LeftElbow
       {
        OFFSET 0.000000 -31.707800 0.000000
        CHANNELS 3 Yrotation Xrotation Zrotation
        JOINT LeftWrist
        {
         OFFSET 0.000000 -25.659300 0.000000
         CHANNELS 3 Yrotation Xrotation Zrotation
         End Site
         {
          OFFSET 0.000000 -18.994300 0.000000
         }
        }
       }
      }
     }
    }
   }
  }
 }
 JOINT RightHip
 {
  OFFSET -8.365600 -0.032100 -0.003200
  CHANNELS 3 Yrotation Xrotation Zrotation
  JOINT RightKnee
  {
   OFFSET 0.000000 -43.980000 0.003100
   CHANNELS 3 Yrotation Xrotation Zrotation
   JOINT RightAnkle
   {
    OFFSET 0.000000 -42.882800 0.005200
    CHANNELS 3 Yrotation Xrotation Zrotation
    JOINT RightToe
    {
     OFFSET 0.000000 -4.915500 10.826300
     CHANNELS 3 Yrotation Xrotation Zrotation
     End Site
     {
      OFFSET 0.000000 -1.517500 6.175900
     }
    }
   }
  }
 }
 JOINT LeftHip
 {
  OFFSET 8.365600 -0.032100 -0.003200
  CHANNELS 3 Yrotation Xrotation Zrotation
  JOINT LeftKnee
  {
   OFFSET 0.000000 -43.980000 0.003100
   CHANNELS 3 Yrotation Xrotation Zrotation
   JOINT LeftAnkle
   {
    OFFSET 0.000000 -42.882800 0.005200
    CHANNELS 3 Yrotation Xrotation Zrotation
    JOINT LeftToe
    {
     OFFSET 0.000000 -4.915500 10.826300
     CHANNELS 3 Yrotation Xrotation Zrotation
     End Site
     {
      OFFSET 0.000000 -1.517500 6.175900
     }
    }
   }
  }
 }
}
MOTION
Frames: 6
Frame Time: 0.008333
89.774278 126.557029 120.203763 179.638267 -20.996116 -2.836040 -0.517883 15.139491 3.303585 -0.087877 1.438081 0.316005 -0.143121 2.415867 0.529757 -0.507871 13.535708 2.929701 -3.528802 19.040949 -4.304503 -2.778566 -5.513462 -3.794869 2.609787 6.419107 -5.718477 8.531031 -12.492545 -15.119147 -92.549405 -53.146904 130.073905 -22.708002 -13.584889 -32.076768 0.124379 8.305862 -0.504341 8.489000 1.212879 -4.744471 95.687908 -54.723476 -139.497888 25.363193 -2.436778 41.965854 12.126546 -60.321141 -4.432074 -113.609425 78.999335 -107.829186 3.435773 -17.767362 -14.042317 0.007804 -0.000844 0.003543 -19.370721 -60.674452 12.322801 57.920630 80.749437 52.459939 -6.868271 -3.536537 -0.589949 0.001938 0.012895 0.000880
89.774500 126.560685 120.208178 179.656806 -21.047971 -2.828681 -0.558471 15.125962 3.285666 -0.090342 1.434188 0.314950 -0.147344 2.409598 0.528037 -0.544869 13.495779 2.920617 -3.470067 19.056485 -4.296936 -2.754414 -5.444133 -3.810929 2.535156 6.446887 -5.680467 8.418029 -11.823441 -14.817342 -91.616309 -52.979289 129.617559 -22.812159 -13.624378 -32.284682 0.150503 8.382333 -0.504485 8.495107 1.216980 -4.716499 95.753563 -54.738581 -139.565805 25.370758 -2.439062 41.966587 11.936595 -60.282271 -4.351069 -113.930358 78.988063 -108.146769 3.492633 -17.875664 -14.089471 0.008154 -0.007093 0.003702 -19.321494 -60.631148 12.269634 57.966475 80.764304 52.496598 -6.882318 -3.546348 -0.574011 0.000740 0.013025 0.000336
89.777082 126.564002 120.213691 179.667435 -21.093121 -2.831736 -0.578156 15.139206 3.282581 -0.101370 1.397676 0.315953 -0.151537 2.403729 0.526157 -0.546897 13.525647 2.914289 -3.443044 19.017854 -4.286738 -2.726133 -5.394771 -3.820290 2.441895 6.393239 -5.640711 8.295533 -11.158032 -14.492938 -90.732147 -52.825023 129.171088 -22.910221 -13.648718 -32.449042 0.074159 8.274185 -0.483239 8.566913 1.330145 -4.700885 95.817403 -54.749048 -139.621834 25.393738 -2.440097 41.985991 11.819954 -60.248187 -4.291661 -114.157983 78.958298 -108.355612 3.537297 -17.962220 -14.113311 0.009744 -0.007645 0.004424 -19.295155 -60.593022 12.261348 58.005265 80.780507 52.521267 -6.887816 -3.548231 -0.560040 0.005376 0.009978 0.002441
89.777991 126.567042 120.219454 179.678055 -21.135547 -2.825205 -0.600116 15.150537 3.269633 -0.102167 1.395054 0.316263 -0.153626 2.400906 0.525223 -0.594862 13.450333 2.908512 -3.391248 19.044099 -4.290070 -2.646922 -5.449461 -3.821346 2.387568 6.399359 -5.611471 8.165248 -10.494142 -14.138801 -89.902851 -52.688217 128.737019 -23.001026 -13.658936 -32.572941 0.055412 8.278076 -0.467676 8.606746 1.394212 -4.692358 95.849334 -54.762178 -139.649114 25.432970 -2.459977 42.027538 11.719748 -60.218317 -4.250860 -114.366515 78.938979 -108.557966 3.572941 -18.034889 -14.119396 0.008064 -0.007278 0.003661 -19.253624 -60.556345 12.222794 58.037533 80.785633 52.543318 -6.882316 -3.551179 -0.546650 0.006421 0.009538 0.002916
89.779372 126.570115 120.224836 179.680709 -21.179099 -2.817874 -0.623738 15.127693 3.260805 -0.095180 1.426946 0.312835 -0.170894 2.340337 0.532463 -0.627207 13.429718 2.901004 -3.349318 19.117004 -4.308986 -2.597589 -5.515019 -3.826686 2.334322 6.401400 -5.598227 8.025840 -9.838105 -13.755626 -89.120316 -52.572181 128.316124 -23.085086 -13.666567 -32.669820 0.050979 8.305671 -0.461352 8.629017 1.432244 -4.685983 95.886144 -54.775306 -139.715851 25.453168 -2.466296 42.079738 11.670256 -60.184074 -4.225930 -114.495923 78.927237 -108.682870 3.583404 -18.091228 -14.092883 0.005104 -0.002095 0.002317 -19.208150 -60.518195 12.185340 58.095592 80.791811 52.592454 -6.884523 -3.560126 -0.533804 0.004406 0.009240 0.002001
89.778505 126.574716 120.225457 179.693198 -21.247730 -2.801074 -0.658877 15.131346 3.243422 -0.097751 1.422982 0.312018 -0.177984 2.314860 0.535924 -0.649111 13.430443 2.893712 -3.319322 19.167332 -4.328376 -2.562647 -5.561264 -3.836610 2.272095 6.377411 -5.597062 7.880722 -9.200661 -13.347814 -88.384987 -52.474009 127.909822 -23.164669 -13.675422 -32.754925 0.043240 8.308266 -0.456741 8.657538 1.499708 -4.690498 95.892373 -54.778115 -139.766096 25.452480 -2.465145 42.118608 11.625362 -60.123719 -4.216520 -114.640930 78.917336 -108.823998 3.601663 -18.131975 -14.094627 0.003973 0.003085 0.001804 -19.137993 -60.458825 12.103791 58.223932 80.792232 52.704831 -6.893079 -3.574897 -0.514418 -0.002520 0.007886 -0.001144
